<?xml version="1.0" encoding="utf-8"?>
<!-- Svg Vector Icons : http://www.onlinewebfonts.com/icon -->
<!DOCTYPE svg PUBLIC "-//W3C//DTD SVG 1.1//EN" "http://www.w3.org/Graphics/SVG/1.1/DTD/svg11.dtd">
<svg version="1.1" xmlns="http://www.w3.org/2000/svg" xmlns:xlink="http://www.w3.org/1999/xlink" x="0px" y="0px" viewBox="0 0 256 256" enable-background="new 0 0 256 256" xml:space="preserve">
<metadata> Svg Vector Icons : http://www.onlinewebfonts.com/icon </metadata>
<g><g><path fill="#000000" d="M85.8,42.8h84.3v41.7H85.8V42.8z"/><path fill="#000000" d="M53.7,154.9h36.5v36.5H53.7V154.9z"/><path fill="#000000" d="M107.1,154.9h41.9v36.5h-41.9V154.9z"/><path fill="#000000" d="M64.6,110h126.8v9.9H64.6V110z"/><path fill="#000000" d="M64.6,117.7h9.9v30.4h-9.9V117.7z"/><path fill="#000000" d="M123,89.8h9.9v53H123V89.8L123,89.8z"/><path fill="#000000" d="M181.5,110.3h9.9v37.8h-9.9V110.3z"/><path fill="#000000" d="M165.8,154.9h36.5v36.5h-36.5V154.9L165.8,154.9z"/><path fill="#000000" d="M128,246c-65.1,0-118-52.9-118-118C10,62.9,62.9,10,128,10c65.1,0,118,52.9,118,118C246,193.1,193.1,246,128,246z M128,21.2C69.1,21.2,21.2,69.1,21.2,128c0,58.9,47.9,106.8,106.8,106.8c58.9,0,106.8-47.9,106.8-106.8C234.8,69.1,186.9,21.2,128,21.2z"/></g></g>
</svg>